<svg width="12" height="8" viewBox="0 0 12 8" fill="none" xmlns="http://www.w3.org/2000/svg">
<path fill-rule="evenodd" clip-rule="evenodd" d="M5.69025 1.06524C5.73089 1.0245 5.77917 0.99217 5.83232 0.970115C5.88548 0.948059 5.94246 0.936707 6 0.936707C6.05755 0.936707 6.11453 0.948059 6.16768 0.970115C6.22083 0.99217 6.26911 1.0245 6.30975 1.06524L11.5598 6.31524C11.6419 6.39739 11.6881 6.50881 11.6881 6.62499C11.6881 6.74117 11.6419 6.85259 11.5598 6.93474C11.4776 7.01689 11.3662 7.06304 11.25 7.06304C11.1338 7.06304 11.0224 7.01689 10.9403 6.93474L6 1.99361L1.05975 6.93474C0.977603 7.01689 0.866182 7.06304 0.750003 7.06304C0.633825 7.06304 0.522404 7.01689 0.440253 6.93474C0.358103 6.85259 0.311951 6.74117 0.311951 6.62499C0.311951 6.50881 0.358103 6.39739 0.440253 6.31524L5.69025 1.06524V1.06524Z" fill="#374151"/>
</svg>
